<svg id="visual" viewBox="0 0 900 600" width="900" height="600" xmlns="http://www.w3.org/2000/svg" xmlns:xlink="http://www.w3.org/1999/xlink" version="1.1"><path d="M0 172L21.5 171.3C43 170.7 86 169.3 128.8 163.5C171.7 157.7 214.3 147.3 257.2 143.8C300 140.3 343 143.7 385.8 153.7C428.7 163.7 471.3 180.3 514.2 179.2C557 178 600 159 642.8 150.7C685.7 142.3 728.3 144.7 771.2 142C814 139.3 857 131.7 878.5 127.8L900 124L900 0L878.5 0C857 0 814 0 771.2 0C728.3 0 685.7 0 642.8 0C600 0 557 0 514.2 0C471.3 0 428.7 0 385.8 0C343 0 300 0 257.2 0C214.3 0 171.7 0 128.8 0C86 0 43 0 21.5 0L0 0Z" fill="#ffd100"></path><path d="M0 100L21.5 102.5C43 105 86 110 128.8 118.8C171.7 127.7 214.3 140.3 257.2 141.5C300 142.7 343 132.3 385.8 128.5C428.7 124.7 471.3 127.3 514.2 131.7C557 136 600 142 642.8 137.8C685.7 133.7 728.3 119.3 771.2 112.5C814 105.7 857 106.3 878.5 106.7L900 107L900 0L878.5 0C857 0 814 0 771.2 0C728.3 0 685.7 0 642.8 0C600 0 557 0 514.2 0C471.3 0 428.7 0 385.8 0C343 0 300 0 257.2 0C214.3 0 171.7 0 128.8 0C86 0 43 0 21.5 0L0 0Z" fill="#faa700"></path><path d="M0 115L21.5 116.5C43 118 86 121 128.8 115.8C171.7 110.7 214.3 97.3 257.2 98.2C300 99 343 114 385.8 112.2C428.7 110.3 471.3 91.7 514.2 82.8C557 74 600 75 642.8 75.8C685.7 76.7 728.3 77.3 771.2 81.8C814 86.3 857 94.7 878.5 98.8L900 103L900 0L878.5 0C857 0 814 0 771.2 0C728.3 0 685.7 0 642.8 0C600 0 557 0 514.2 0C471.3 0 428.7 0 385.8 0C343 0 300 0 257.2 0C214.3 0 171.7 0 128.8 0C86 0 43 0 21.5 0L0 0Z" fill="#ee7d00"></path><path d="M0 80L21.5 80.3C43 80.7 86 81.3 128.8 83C171.7 84.7 214.3 87.3 257.2 88.2C300 89 343 88 385.8 82.5C428.7 77 471.3 67 514.2 64.7C557 62.3 600 67.7 642.8 73.5C685.7 79.3 728.3 85.7 771.2 85.8C814 86 857 80 878.5 77L900 74L900 0L878.5 0C857 0 814 0 771.2 0C728.3 0 685.7 0 642.8 0C600 0 557 0 514.2 0C471.3 0 428.7 0 385.8 0C343 0 300 0 257.2 0C214.3 0 171.7 0 128.8 0C86 0 43 0 21.5 0L0 0Z" fill="#de5000"></path><path d="M0 32L21.5 34.3C43 36.7 86 41.3 128.8 43.8C171.7 46.3 214.3 46.7 257.2 45.2C300 43.7 343 40.3 385.8 40.2C428.7 40 471.3 43 514.2 43.8C557 44.7 600 43.3 642.8 43.8C685.7 44.3 728.3 46.7 771.2 43.7C814 40.7 857 32.3 878.5 28.2L900 24L900 0L878.5 0C857 0 814 0 771.2 0C728.3 0 685.7 0 642.8 0C600 0 557 0 514.2 0C471.3 0 428.7 0 385.8 0C343 0 300 0 257.2 0C214.3 0 171.7 0 128.8 0C86 0 43 0 21.5 0L0 0Z" fill="#cc0000"></path></svg>