<svg id="visual" viewBox="0 0 960 540" width="960" height="540" xmlns="http://www.w3.org/2000/svg" xmlns:xlink="http://www.w3.org/1999/xlink" version="1.1"><rect x="0" y="0" width="960" height="540" fill="#fef9c3"></rect><path d="M0 176L22.8 175.5C45.7 175 91.3 174 137 167.5C182.7 161 228.3 149 274 141.7C319.7 134.3 365.3 131.7 411.2 136.3C457 141 503 153 548.8 160.3C594.7 167.7 640.3 170.3 686 169.7C731.7 169 777.3 165 823 162.2C868.7 159.3 914.3 157.7 937.2 156.8L960 156L960 0L937.2 0C914.3 0 868.7 0 823 0C777.3 0 731.7 0 686 0C640.3 0 594.7 0 548.8 0C503 0 457 0 411.2 0C365.3 0 319.7 0 274 0C228.3 0 182.7 0 137 0C91.3 0 45.7 0 22.8 0L0 0Z" fill="#dd2e2e"></path><path d="M0 88L22.8 89.7C45.7 91.3 91.3 94.7 137 94.2C182.7 93.7 228.3 89.3 274 91.3C319.7 93.3 365.3 101.7 411.2 109.2C457 116.7 503 123.3 548.8 129C594.7 134.7 640.3 139.3 686 138C731.7 136.7 777.3 129.3 823 121.8C868.7 114.3 914.3 106.7 937.2 102.8L960 99L960 0L937.2 0C914.3 0 868.7 0 823 0C777.3 0 731.7 0 686 0C640.3 0 594.7 0 548.8 0C503 0 457 0 411.2 0C365.3 0 319.7 0 274 0C228.3 0 182.7 0 137 0C91.3 0 45.7 0 22.8 0L0 0Z" fill="#d00050"></path><path d="M0 92L22.8 89.3C45.7 86.7 91.3 81.3 137 79C182.7 76.7 228.3 77.3 274 84C319.7 90.7 365.3 103.3 411.2 104.8C457 106.3 503 96.7 548.8 89.3C594.7 82 640.3 77 686 81C731.7 85 777.3 98 823 97.8C868.7 97.7 914.3 84.3 937.2 77.7L960 71L960 0L937.2 0C914.3 0 868.7 0 823 0C777.3 0 731.7 0 686 0C640.3 0 594.7 0 548.8 0C503 0 457 0 411.2 0C365.3 0 319.7 0 274 0C228.3 0 182.7 0 137 0C91.3 0 45.7 0 22.8 0L0 0Z" fill="#b6006c"></path><path d="M0 79L22.8 74.8C45.7 70.7 91.3 62.3 137 56.7C182.7 51 228.3 48 274 50.7C319.7 53.3 365.3 61.7 411.2 67.8C457 74 503 78 548.8 80.3C594.7 82.7 640.3 83.3 686 83.7C731.7 84 777.3 84 823 76.7C868.7 69.3 914.3 54.7 937.2 47.3L960 40L960 0L937.2 0C914.3 0 868.7 0 823 0C777.3 0 731.7 0 686 0C640.3 0 594.7 0 548.8 0C503 0 457 0 411.2 0C365.3 0 319.7 0 274 0C228.3 0 182.7 0 137 0C91.3 0 45.7 0 22.8 0L0 0Z" fill="#890085"></path><path d="M0 40L22.8 36.8C45.7 33.7 91.3 27.3 137 29C182.7 30.7 228.3 40.3 274 43.5C319.7 46.7 365.3 43.3 411.2 41.5C457 39.7 503 39.3 548.8 41.3C594.7 43.3 640.3 47.7 686 45.3C731.7 43 777.3 34 823 32.8C868.7 31.7 914.3 38.3 937.2 41.7L960 45L960 0L937.2 0C914.3 0 868.7 0 823 0C777.3 0 731.7 0 686 0C640.3 0 594.7 0 548.8 0C503 0 457 0 411.2 0C365.3 0 319.7 0 274 0C228.3 0 182.7 0 137 0C91.3 0 45.7 0 22.8 0L0 0Z" fill="#24149d"></path></svg>